<svg width="330" height="53" viewBox="0 0 330 53" fill="none" xmlns="http://www.w3.org/2000/svg">
<path d="M304.039 51.1182V16.7529H308.812V29.8785H308.907C309.957 28.2557 311.341 27.0784 313.059 26.3466C314.81 25.6147 316.687 25.2488 318.692 25.2488C321.874 25.2488 324.419 25.9806 326.328 27.4443C328.237 28.8762 329.192 31.0877 329.192 34.0787V51.1182H324.419V35.0333C324.419 33.156 323.815 31.7241 322.605 30.7377C321.396 29.7513 319.535 29.2581 317.021 29.2581C314.73 29.2581 312.789 29.9104 311.198 31.215C309.607 32.5196 308.812 34.3492 308.812 36.7039V51.1182H304.039Z" fill="#1662F0"/>
<path d="M288.472 26.1091V18.4247H293.245V26.1091H300.405V29.832H293.245V45.2487C293.245 46.2033 293.563 46.9033 294.2 47.3488C294.868 47.7624 295.838 47.9693 297.111 47.9693C298.034 47.9693 299.132 47.8579 300.405 47.6352V51.6444C299.132 51.8672 297.35 51.9785 295.059 51.9785C292.8 51.9785 291.129 51.4694 290.047 50.4512C288.997 49.4011 288.472 47.9374 288.472 46.0601V29.832H283.317V26.1091H288.472Z" fill="#1662F0"/>
<path d="M252.648 38.614C252.648 36.7685 252.95 35.0502 253.555 33.4592C254.159 31.8364 255.066 30.4205 256.275 29.2113C257.516 27.9703 259.044 26.9998 260.857 26.2998C262.703 25.5998 264.803 25.2498 267.158 25.2498C269.544 25.2498 271.644 25.5998 273.458 26.2998C275.272 26.9998 276.783 27.9703 277.992 29.2113C279.233 30.4205 280.156 31.8364 280.761 33.4592C281.365 35.0502 281.667 36.7685 281.667 38.614C281.667 40.4596 281.365 42.1937 280.761 43.8165C280.156 45.4075 279.233 46.8235 277.992 48.0645C276.783 49.2736 275.272 50.2282 273.458 50.9282C271.644 51.6283 269.544 51.9783 267.158 51.9783C264.803 51.9783 262.703 51.6283 260.857 50.9282C259.044 50.2282 257.516 49.2736 256.275 48.0645C255.066 46.8235 254.159 45.4075 253.555 43.8165C252.95 42.1937 252.648 40.4596 252.648 38.614ZM276.608 38.614C276.608 37.4367 276.433 36.2912 276.083 35.1775C275.733 34.0638 275.176 33.0615 274.413 32.1705C273.681 31.2796 272.694 30.5796 271.453 30.0704C270.244 29.5295 268.812 29.259 267.158 29.259C265.503 29.259 264.071 29.5295 262.862 30.0704C261.653 30.5796 260.667 31.2796 259.903 32.1705C259.139 33.0615 258.582 34.0638 258.232 35.1775C257.882 36.2912 257.707 37.4367 257.707 38.614C257.707 39.7914 257.882 40.9369 258.232 42.0506C258.582 43.1642 259.123 44.1666 259.855 45.0575C260.619 45.9485 261.605 46.6644 262.814 47.2053C264.055 47.7145 265.503 47.969 267.158 47.969C268.812 47.969 270.244 47.7145 271.453 47.2053C272.694 46.6644 273.681 45.9485 274.413 45.0575C275.176 44.1666 275.733 43.1642 276.083 42.0506C276.433 40.9369 276.608 39.7914 276.608 38.614Z" fill="#1662F0"/>
<path d="M220.02 38.614C220.02 36.7685 220.322 35.0502 220.927 33.4592C221.531 31.8364 222.438 30.4205 223.647 29.2113C224.888 27.9703 226.416 26.9998 228.229 26.2998C230.075 25.5998 232.175 25.2498 234.53 25.2498C236.916 25.2498 239.016 25.5998 240.83 26.2998C242.644 26.9998 244.155 27.9703 245.364 29.2113C246.605 30.4205 247.528 31.8364 248.133 33.4592C248.737 35.0502 249.04 36.7685 249.04 38.614C249.04 40.4596 248.737 42.1937 248.133 43.8165C247.528 45.4075 246.605 46.8235 245.364 48.0645C244.155 49.2736 242.644 50.2282 240.83 50.9282C239.016 51.6283 236.916 51.9783 234.53 51.9783C232.175 51.9783 230.075 51.6283 228.229 50.9282C226.416 50.2282 224.888 49.2736 223.647 48.0645C222.438 46.8235 221.531 45.4075 220.927 43.8165C220.322 42.1937 220.02 40.4596 220.02 38.614ZM243.98 38.614C243.98 37.4367 243.805 36.2912 243.455 35.1775C243.105 34.0638 242.548 33.0615 241.785 32.1705C241.053 31.2796 240.066 30.5796 238.825 30.0704C237.616 29.5295 236.184 29.259 234.53 29.259C232.875 29.259 231.443 29.5295 230.234 30.0704C229.025 30.5796 228.039 31.2796 227.275 32.1705C226.511 33.0615 225.954 34.0638 225.604 35.1775C225.254 36.2912 225.079 37.4367 225.079 38.614C225.079 39.7914 225.254 40.9369 225.604 42.0506C225.954 43.1642 226.495 44.1666 227.227 45.0575C227.991 45.9485 228.977 46.6644 230.186 47.2053C231.427 47.7145 232.875 47.969 234.53 47.969C236.184 47.969 237.616 47.7145 238.825 47.2053C240.066 46.6644 241.053 45.9485 241.785 45.0575C242.548 44.1666 243.105 43.1642 243.455 42.0506C243.805 40.9369 243.98 39.7914 243.98 38.614Z" fill="#1662F0"/>
<path d="M188.444 51.1182V16.7529H193.217V29.8785H193.312C194.235 28.4467 195.556 27.3648 197.274 26.6329C198.992 25.9011 200.838 25.5352 202.81 25.5352C204.72 25.5352 206.486 25.8375 208.108 26.442C209.763 27.0148 211.211 27.8739 212.452 29.0194C213.693 30.1649 214.663 31.565 215.363 33.2196C216.063 34.8424 216.413 36.688 216.413 38.7562C216.413 40.7927 216.063 42.6382 215.363 44.2929C214.663 45.9475 213.693 47.3476 212.452 48.4931C211.211 49.6386 209.763 50.5136 208.108 51.1182C206.486 51.6909 204.72 51.9773 202.81 51.9773C200.901 51.9773 199.056 51.6273 197.274 50.9273C195.524 50.1954 194.203 49.1931 193.312 47.9203H193.217V51.1182H188.444ZM211.354 38.7562C211.354 35.9243 210.527 33.681 208.872 32.0264C207.217 30.3718 204.99 29.5444 202.19 29.5444C199.39 29.5444 197.147 30.3718 195.46 32.0264C193.774 33.681 192.93 35.9243 192.93 38.7562C192.93 39.9654 193.105 41.1268 193.455 42.2405C193.837 43.3224 194.41 44.3088 195.174 45.1997C195.937 46.0589 196.908 46.743 198.085 47.2521C199.263 47.7294 200.631 47.968 202.19 47.968C203.749 47.968 205.101 47.7294 206.247 47.2521C207.424 46.743 208.379 46.0589 209.111 45.1997C209.874 44.3088 210.431 43.3224 210.781 42.2405C211.163 41.1586 211.354 39.9972 211.354 38.7562Z" fill="#1662F0"/>
<path d="M125.876 51.1183V41.3099L158.094 11.4551H128.096V0H180.932V10.0232L148.93 39.6632H180.431V51.1183H125.876Z" fill="#1662F0"/>
<path d="M71.3628 51.1193V0.000976562H122.553V11.0265H88.4022V20.2622H120.405V30.8581H88.4022V40.0938H122.553V51.1193H71.3628Z" fill="#1662F0"/>
<path fill-rule="evenodd" clip-rule="evenodd" d="M55.2491 0.351623C55.2491 0.157966 55.0921 0.000976562 54.8984 0.000976562H11.7453C5.25855 0.000976562 0 5.25952 0 11.7463V14.2834C0 19.3689 4.12264 23.4916 9.20818 23.4916H15.4334C17.0809 23.4916 18.4164 24.8271 18.4164 26.4745C18.4164 28.1219 17.0809 29.4574 15.4334 29.4574H9.20818C4.12264 29.4574 0 33.5801 0 38.6656V41.2027C0 47.6895 5.25855 52.948 11.7453 52.948H32.4128H52.2661C53.9136 52.948 55.2491 51.6125 55.2491 49.9651C55.2491 48.3176 53.9136 46.9821 52.2661 46.9821H47.2329C41.46 46.9821 37.5798 41.064 39.8816 35.7698L55.22 0.491435C55.2392 0.447319 55.2491 0.399728 55.2491 0.351623Z" fill="#1662F0"/>
</svg>
