<svg width="150" height="142" viewBox="0 0 150 142" fill="none" xmlns="http://www.w3.org/2000/svg">
<path fill-rule="evenodd" clip-rule="evenodd" d="M150 0.938584C150 0.420218 149.58 0 149.061 0H31.5C14.103 0 0 14.103 0 31.5V38C0 51.8071 11.1929 63 25 63H42C46.4183 63 50 66.5817 50 71C50 75.4183 46.4183 79 42 79H25C11.1929 79 0 90.1929 0 104V110.5C0 127.897 14.103 142 31.5 142H88H142C146.418 142 150 138.418 150 134C150 129.582 146.418 126 142 126H128.301C112.632 126 102.128 109.901 108.44 95.5595L149.92 1.31669C149.973 1.19753 150 1.06877 150 0.938584Z" fill="#1662F0"/>
</svg>
