<svg width="207" height="53" viewBox="0 0 207 53" fill="none" xmlns="http://www.w3.org/2000/svg">
<path d="M181.293 51.8913V17.526H186.066V30.6516H186.162C187.212 29.0288 188.596 27.8515 190.314 27.1196C192.064 26.3878 193.942 26.0219 195.946 26.0219C199.128 26.0219 201.674 26.7537 203.583 28.2174C205.492 29.6493 206.447 31.8608 206.447 34.8518V51.8913H201.674V35.8064C201.674 33.929 201.069 32.4972 199.86 31.5108C198.651 30.5243 196.79 30.0311 194.276 30.0311C191.985 30.0311 190.044 30.6834 188.453 31.988C186.862 33.2927 186.066 35.1223 186.066 37.4769V51.8913H181.293Z" fill="#1662F0"/>
<path d="M165.727 26.8822V19.1978H170.5V26.8822H177.659V30.6051H170.5V46.0217C170.5 46.9763 170.818 47.6764 171.455 48.1219C172.123 48.5355 173.093 48.7423 174.366 48.7423C175.289 48.7423 176.387 48.631 177.659 48.4082V52.4175C176.387 52.6402 174.605 52.7516 172.314 52.7516C170.055 52.7516 168.384 52.2425 167.302 51.2243C166.252 50.1742 165.727 48.7105 165.727 46.8332V30.6051H160.572V26.8822H165.727Z" fill="#1662F0"/>
<path d="M129.902 39.3872C129.902 37.5416 130.205 35.8234 130.809 34.2324C131.414 32.6096 132.321 31.1936 133.53 29.9844C134.771 28.7435 136.298 27.773 138.112 27.0729C139.957 26.3729 142.057 26.0229 144.412 26.0229C146.799 26.0229 148.899 26.3729 150.712 27.0729C152.526 27.773 154.038 28.7435 155.247 29.9844C156.488 31.1936 157.41 32.6096 158.015 34.2324C158.62 35.8234 158.922 37.5416 158.922 39.3872C158.922 41.2327 158.62 42.9669 158.015 44.5897C157.41 46.1807 156.488 47.5966 155.247 48.8376C154.038 50.0468 152.526 51.0013 150.712 51.7014C148.899 52.4014 146.799 52.7514 144.412 52.7514C142.057 52.7514 139.957 52.4014 138.112 51.7014C136.298 51.0013 134.771 50.0468 133.53 48.8376C132.321 47.5966 131.414 46.1807 130.809 44.5897C130.205 42.9669 129.902 41.2327 129.902 39.3872ZM153.863 39.3872C153.863 38.2098 153.688 37.0643 153.338 35.9506C152.988 34.8369 152.431 33.8346 151.667 32.9437C150.935 32.0527 149.949 31.3527 148.708 30.8436C147.499 30.3026 146.067 30.0322 144.412 30.0322C142.757 30.0322 141.326 30.3026 140.116 30.8436C138.907 31.3527 137.921 32.0527 137.157 32.9437C136.394 33.8346 135.837 34.8369 135.487 35.9506C135.137 37.0643 134.962 38.2098 134.962 39.3872C134.962 40.5645 135.137 41.71 135.487 42.8237C135.837 43.9374 136.378 44.9397 137.11 45.8306C137.873 46.7216 138.86 47.4375 140.069 47.9785C141.31 48.4876 142.757 48.7421 144.412 48.7421C146.067 48.7421 147.499 48.4876 148.708 47.9785C149.949 47.4375 150.935 46.7216 151.667 45.8306C152.431 44.9397 152.988 43.9374 153.338 42.8237C153.688 41.71 153.863 40.5645 153.863 39.3872Z" fill="#1662F0"/>
<path d="M97.2744 39.3872C97.2744 37.5416 97.5767 35.8234 98.1813 34.2324C98.7858 32.6096 99.6927 31.1936 100.902 29.9844C102.143 28.7435 103.67 27.773 105.484 27.0729C107.329 26.3729 109.43 26.0229 111.784 26.0229C114.171 26.0229 116.271 26.3729 118.084 27.0729C119.898 27.773 121.41 28.7435 122.619 29.9844C123.86 31.1936 124.783 32.6096 125.387 34.2324C125.992 35.8234 126.294 37.5416 126.294 39.3872C126.294 41.2327 125.992 42.9669 125.387 44.5897C124.783 46.1807 123.86 47.5966 122.619 48.8376C121.41 50.0468 119.898 51.0013 118.084 51.7014C116.271 52.4014 114.171 52.7514 111.784 52.7514C109.43 52.7514 107.329 52.4014 105.484 51.7014C103.67 51.0013 102.143 50.0468 100.902 48.8376C99.6927 47.5966 98.7858 46.1807 98.1813 44.5897C97.5767 42.9669 97.2744 41.2327 97.2744 39.3872ZM121.235 39.3872C121.235 38.2098 121.06 37.0643 120.71 35.9506C120.36 34.8369 119.803 33.8346 119.039 32.9437C118.307 32.0527 117.321 31.3527 116.08 30.8436C114.871 30.3026 113.439 30.0322 111.784 30.0322C110.13 30.0322 108.698 30.3026 107.489 30.8436C106.279 31.3527 105.293 32.0527 104.529 32.9437C103.766 33.8346 103.209 34.8369 102.859 35.9506C102.509 37.0643 102.334 38.2098 102.334 39.3872C102.334 40.5645 102.509 41.71 102.859 42.8237C103.209 43.9374 103.75 44.9397 104.482 45.8306C105.245 46.7216 106.232 47.4375 107.441 47.9785C108.682 48.4876 110.13 48.7421 111.784 48.7421C113.439 48.7421 114.871 48.4876 116.08 47.9785C117.321 47.4375 118.307 46.7216 119.039 45.8306C119.803 44.9397 120.36 43.9374 120.71 42.8237C121.06 41.71 121.235 40.5645 121.235 39.3872Z" fill="#1662F0"/>
<path d="M65.6982 51.8913V17.526H70.4712V30.6516H70.5667C71.4894 29.2197 72.8099 28.1379 74.5282 27.406C76.2465 26.6742 78.092 26.3082 80.0648 26.3082C81.974 26.3082 83.74 26.6105 85.3628 27.2151C87.0174 27.7878 88.4652 28.647 89.7062 29.7925C90.9472 30.938 91.9177 32.3381 92.6177 33.9927C93.3177 35.6155 93.6677 37.461 93.6677 39.5293C93.6677 41.5658 93.3177 43.4113 92.6177 45.0659C91.9177 46.7206 90.9472 48.1206 89.7062 49.2661C88.4652 50.4116 87.0174 51.2867 85.3628 51.8913C83.74 52.464 81.974 52.7504 80.0648 52.7504C78.1556 52.7504 76.3101 52.4004 74.5282 51.7003C72.7781 50.9685 71.4576 49.9662 70.5667 48.6934H70.4712V51.8913H65.6982ZM88.6084 39.5293C88.6084 36.6974 87.7811 34.4541 86.1265 32.7995C84.4719 31.1448 82.2445 30.3175 79.4443 30.3175C76.6442 30.3175 74.4009 31.1448 72.7145 32.7995C71.028 34.4541 70.1848 36.6974 70.1848 39.5293C70.1848 40.7385 70.3598 41.8999 70.7098 43.0136C71.0917 44.0954 71.6644 45.0818 72.4281 45.9728C73.1918 46.8319 74.1623 47.5161 75.3396 48.0252C76.5169 48.5025 77.8852 48.7411 79.4443 48.7411C81.0035 48.7411 82.3559 48.5025 83.5014 48.0252C84.6787 47.5161 85.6333 46.8319 86.3651 45.9728C87.1288 45.0818 87.6856 44.0954 88.0357 43.0136C88.4175 41.9317 88.6084 40.7703 88.6084 39.5293Z" fill="#1662F0"/>
<path fill-rule="evenodd" clip-rule="evenodd" d="M55.2491 0.403625C55.2491 0.209968 55.0921 0.0529785 54.8984 0.0529785H11.7453C5.25855 0.0529785 0 5.31152 0 11.7983V14.3354C0 19.4209 4.12264 23.5436 9.20818 23.5436H15.4334C17.0809 23.5436 18.4164 24.8791 18.4164 26.5265C18.4164 28.1739 17.0809 29.5094 15.4334 29.5094H9.20818C4.12264 29.5094 0 33.6321 0 38.7176V41.2547C0 47.7415 5.25855 53 11.7453 53H32.4128H52.2661C53.9136 53 55.2491 51.6645 55.2491 50.0171C55.2491 48.3697 53.9136 47.0341 52.2661 47.0341H47.2329C41.46 47.0341 37.5798 41.116 39.8816 35.8218L55.22 0.543437C55.2392 0.499321 55.2491 0.45173 55.2491 0.403625Z" fill="#1662F0"/>
</svg>
