<svg width="258" height="53" viewBox="0 0 258 53" fill="none" xmlns="http://www.w3.org/2000/svg">
<path fill-rule="evenodd" clip-rule="evenodd" d="M54.5132 51.4942V41.6858L86.7307 11.8309H56.7327V0.375854H109.569V10.3991L77.5666 40.0391H109.068V51.4942H54.5132ZM117.081 17.1289V51.4941H121.854V48.2963H121.949C122.84 49.569 124.161 50.5714 125.911 51.3032C127.693 52.0032 129.538 52.3533 131.448 52.3533C133.357 52.3533 135.123 52.0669 136.746 51.4941C138.4 50.8896 139.848 50.0145 141.089 48.869C142.33 47.7235 143.3 46.3234 144 44.6688C144.7 43.0142 145.051 41.1686 145.051 39.1322C145.051 37.0639 144.7 35.2184 144 33.5956C143.3 31.9409 142.33 30.5409 141.089 29.3954C139.848 28.2498 138.4 27.3907 136.746 26.818C135.123 26.2134 133.357 25.9111 131.448 25.9111C129.475 25.9111 127.629 26.277 125.911 27.0089C124.193 27.7407 122.872 28.8226 121.949 30.2545H121.854V17.1289H117.081ZM137.509 32.4023C139.164 34.0569 139.991 36.3002 139.991 39.1322C139.991 40.3732 139.8 41.5346 139.418 42.6164C139.068 43.6983 138.512 44.6847 137.748 45.5757C137.016 46.4348 136.061 47.1189 134.884 47.628C133.739 48.1053 132.386 48.344 130.827 48.344C129.268 48.344 127.9 48.1053 126.722 47.628C125.545 47.1189 124.575 46.4348 123.811 45.5757C123.047 44.6847 122.474 43.6983 122.093 42.6164C121.743 41.5028 121.568 40.3413 121.568 39.1322C121.568 36.3002 122.411 34.0569 124.097 32.4023C125.784 30.7477 128.027 29.9204 130.827 29.9204C133.627 29.9204 135.855 30.7477 137.509 32.4023ZM232.676 51.4941V17.1289H237.448V30.2545H237.544C238.594 28.6317 239.978 27.4544 241.696 26.7225C243.446 25.9907 245.324 25.6247 247.328 25.6247C250.51 25.6247 253.056 26.3566 254.965 27.8203C256.874 29.2522 257.829 31.4636 257.829 34.4547V51.4941H253.056V35.4093C253.056 33.5319 252.451 32.1 251.242 31.1136C250.033 30.1272 248.172 29.634 245.658 29.634C243.367 29.634 241.426 30.2863 239.835 31.5909C238.244 32.8955 237.448 34.7252 237.448 37.0798V51.4941H232.676ZM217.109 26.4851V18.8006H221.882V26.4851H229.042V30.208H221.882V45.6246C221.882 46.5792 222.2 47.2793 222.837 47.7247C223.505 48.1384 224.476 48.3452 225.748 48.3452C226.671 48.3452 227.769 48.2338 229.042 48.0111V52.0204C227.769 52.2431 225.987 52.3545 223.696 52.3545C221.437 52.3545 219.766 51.8454 218.684 50.8272C217.634 49.7771 217.109 48.3134 217.109 46.436V30.208H211.955V26.4851H217.109ZM182.191 33.8352C181.587 35.4262 181.284 37.1445 181.284 38.99C181.284 40.8356 181.587 42.5697 182.191 44.1926C182.796 45.7835 183.703 47.1995 184.912 48.4405C186.153 49.6496 187.68 50.6042 189.494 51.3042C191.339 52.0043 193.44 52.3543 195.794 52.3543C198.181 52.3543 200.281 52.0043 202.095 51.3042C203.908 50.6042 205.42 49.6496 206.629 48.4405C207.87 47.1995 208.793 45.7835 209.397 44.1926C210.002 42.5697 210.304 40.8356 210.304 38.99C210.304 37.1445 210.002 35.4262 209.397 33.8352C208.793 32.2124 207.87 30.7965 206.629 29.5873C205.42 28.3463 203.908 27.3758 202.095 26.6758C200.281 25.9758 198.181 25.6258 195.794 25.6258C193.44 25.6258 191.339 25.9758 189.494 26.6758C187.68 27.3758 186.153 28.3463 184.912 29.5873C183.703 30.7965 182.796 32.2124 182.191 33.8352ZM204.72 35.5535C205.07 36.6672 205.245 37.8127 205.245 38.99C205.245 40.1674 205.07 41.3129 204.72 42.4266C204.37 43.5402 203.813 44.5426 203.049 45.4335C202.317 46.3245 201.331 47.0404 200.09 47.5813C198.881 48.0905 197.449 48.345 195.794 48.345C194.14 48.345 192.692 48.0905 191.451 47.5813C190.242 47.0404 189.255 46.3245 188.492 45.4335C187.76 44.5426 187.219 43.5402 186.869 42.4266C186.519 41.3129 186.344 40.1674 186.344 38.99C186.344 37.8127 186.519 36.6672 186.869 35.5535C187.219 34.4398 187.776 33.4375 188.539 32.5465C189.303 31.6556 190.289 30.9556 191.499 30.4464C192.708 29.9055 194.14 29.635 195.794 29.635C197.449 29.635 198.881 29.9055 200.09 30.4464C201.331 30.9556 202.317 31.6556 203.049 32.5465C203.813 33.4375 204.37 34.4398 204.72 35.5535ZM148.657 38.99C148.657 37.1445 148.959 35.4262 149.564 33.8352C150.168 32.2124 151.075 30.7965 152.284 29.5873C153.525 28.3463 155.053 27.3758 156.866 26.6758C158.712 25.9758 160.812 25.6258 163.167 25.6258C165.553 25.6258 167.653 25.9758 169.467 26.6758C171.281 27.3758 172.792 28.3463 174.001 29.5873C175.242 30.7965 176.165 32.2124 176.77 33.8352C177.374 35.4262 177.676 37.1445 177.676 38.99C177.676 40.8356 177.374 42.5697 176.77 44.1926C176.165 45.7835 175.242 47.1995 174.001 48.4405C172.792 49.6496 171.281 50.6042 169.467 51.3042C167.653 52.0043 165.553 52.3543 163.167 52.3543C160.812 52.3543 158.712 52.0043 156.866 51.3042C155.053 50.6042 153.525 49.6496 152.284 48.4405C151.075 47.1995 150.168 45.7835 149.564 44.1926C148.959 42.5697 148.657 40.8356 148.657 38.99ZM172.617 38.99C172.617 37.8127 172.442 36.6672 172.092 35.5535C171.742 34.4398 171.185 33.4375 170.422 32.5465C169.69 31.6556 168.703 30.9556 167.462 30.4464C166.253 29.9055 164.821 29.635 163.167 29.635C161.512 29.635 160.08 29.9055 158.871 30.4464C157.662 30.9556 156.675 31.6556 155.912 32.5465C155.148 33.4375 154.591 34.4398 154.241 35.5535C153.891 36.6672 153.716 37.8127 153.716 38.99C153.716 40.1674 153.891 41.3129 154.241 42.4266C154.591 43.5402 155.132 44.5426 155.864 45.4335C156.628 46.3245 157.614 47.0404 158.823 47.5813C160.064 48.0905 161.512 48.345 163.167 48.345C164.821 48.345 166.253 48.0905 167.462 47.5813C168.703 47.0404 169.69 46.3245 170.422 45.4335C171.185 44.5426 171.742 43.5402 172.092 42.4266C172.442 41.3129 172.617 40.1674 172.617 38.99ZM0 0.376861V51.4952H51.1899V40.4697H17.0394V31.234H49.0421V20.638H17.0394V11.4024H51.1899V0.376861H0Z" fill="#1662F0"/>
</svg>
